<svg width="247" height="140" viewBox="0 0 247 140" fill="none" xmlns="http://www.w3.org/2000/svg">
<rect width="247" height="140" fill="#F5F5F5"/>
<rect width="247" height="140" fill="#D9D9D9"/>
<rect x="68" y="9" width="50" height="121" fill="white"/>
<rect x="68" y="9" width="50" height="121" fill="white"/>
<rect x="68" y="9" width="50" height="121" fill="white"/>
<rect x="68" y="9" width="50" height="121" fill="white"/>
<rect x="68" y="9" width="50" height="121" fill="white"/>
<rect x="68" y="9" width="50" height="121" fill="white"/>
<rect x="68" y="9" width="50" height="121" fill="white"/>
<rect x="9" y="9" width="50" height="121" fill="white"/>
<rect x="9" y="9" width="50" height="121" fill="white"/>
<rect x="9" y="9" width="50" height="121" fill="white"/>
<rect x="9" y="9" width="50" height="121" fill="white"/>
<rect x="9" y="9" width="50" height="121" fill="white"/>
<rect x="9" y="9" width="50" height="121" fill="white"/>
<rect x="9" y="9" width="50" height="121" fill="white"/>
<rect x="189" y="9" width="50" height="121" fill="white"/>
<rect x="189" y="9" width="50" height="121" fill="white"/>
<rect x="189" y="9" width="50" height="121" fill="white"/>
<rect x="189" y="9" width="50" height="121" fill="white"/>
<rect x="189" y="9" width="50" height="121" fill="white"/>
<rect x="189" y="9" width="50" height="121" fill="white"/>
<rect x="189" y="9" width="50" height="121" fill="white"/>
<path d="M128 9H179V130H128V9Z" fill="white"/>
<path d="M178.5 9.5L128.985 70.801" stroke="black"/>
<line x1="178.619" y1="129.323" x2="128.619" y2="70.3233" stroke="black"/>
<line x1="128.511" y1="129.895" x2="154.511" y2="8.89496" stroke="black"/>
<line x1="178.511" y1="129.102" x2="153.511" y2="9.10198" stroke="black"/>
<path d="M68 9L118 70" stroke="black"/>
<path d="M68.6531 128.735L117.965 70" stroke="black"/>
<path d="M68.5 129L92.5105 8.89802" stroke="black"/>
<path d="M93.4897 8.89883L117.5 129.5" stroke="black"/>
</svg>
