<svg width="156" height="229" viewBox="0 0 156 229" fill="none" xmlns="http://www.w3.org/2000/svg">
<rect width="156" height="229" fill="#F5F5F5"/>
<rect width="156" height="140" fill="#D9D9D9"/>
<rect x="7" y="9" width="50" height="121" fill="white"/>
<rect x="7" y="9" width="50" height="121" fill="white"/>
<rect x="7" y="9" width="50" height="121" fill="white"/>
<rect x="7" y="9" width="50" height="121" fill="white"/>
<rect x="7" y="9" width="50" height="121" fill="white"/>
<rect x="7" y="9" width="50" height="121" fill="white"/>
<rect x="7" y="9" width="50" height="121" fill="white"/>
<rect x="73" y="8" width="75" height="121" fill="white"/>
<rect x="73" y="8" width="75" height="121" fill="white"/>
<rect x="73" y="8" width="75" height="121" fill="white"/>
<rect x="73" y="8" width="75" height="121" fill="white"/>
<rect x="73" y="8" width="75" height="121" fill="white"/>
<rect x="73" y="8" width="75" height="121" fill="white"/>
<rect x="73" y="8" width="75" height="121" fill="white"/>
<path d="M7 9L56.5 106.5" stroke="black"/>
<rect y="140" width="67" height="89" fill="#D9D9D9"/>
<rect x="7" y="140" width="50" height="79" fill="white"/>
<path d="M7.5 218.5L57 106.5" stroke="black"/>
<path d="M32.4897 8.89882L56.5 219" stroke="black"/>
<path d="M7.5 218.5L31.5105 8.89802" stroke="black"/>
</svg>
