<svg width="185" height="140" viewBox="0 0 185 140" fill="none" xmlns="http://www.w3.org/2000/svg">
<rect width="185" height="140" fill="#F5F5F5"/>
<rect width="185" height="140" fill="#D9D9D9"/>
<rect x="7" y="9" width="50" height="121" fill="white"/>
<rect x="7" y="9" width="50" height="121" fill="white"/>
<rect x="7" y="9" width="50" height="121" fill="white"/>
<rect x="7" y="9" width="50" height="121" fill="white"/>
<rect x="7" y="9" width="50" height="121" fill="white"/>
<rect x="7" y="9" width="50" height="121" fill="white"/>
<rect x="7" y="9" width="50" height="121" fill="white"/>
<rect x="128" y="9" width="50" height="121" fill="white"/>
<rect x="128" y="9" width="50" height="121" fill="white"/>
<rect x="128" y="9" width="50" height="121" fill="white"/>
<rect x="128" y="9" width="50" height="121" fill="white"/>
<rect x="128" y="9" width="50" height="121" fill="white"/>
<rect x="128" y="9" width="50" height="121" fill="white"/>
<rect x="128" y="9" width="50" height="121" fill="white"/>
<rect x="67" y="9" width="51" height="121" fill="white"/>
<path d="M117.5 9.5L67.9848 70.801" stroke="black"/>
<line x1="117.619" y1="129.323" x2="67.6186" y2="70.3233" stroke="black"/>
<line x1="66.5112" y1="129.895" x2="92.5112" y2="8.89496" stroke="black"/>
<line x1="117.511" y1="129.102" x2="92.5105" y2="9.10198" stroke="black"/>
</svg>
