<?xml version="1.0" encoding="utf-8"?>
<!-- Generator: Adobe Illustrator 25.1.0, SVG Export Plug-In . SVG Version: 6.00 Build 0)  -->
<svg version="1.1" id="Слой_1" xmlns="http://www.w3.org/2000/svg" xmlns:xlink="http://www.w3.org/1999/xlink" x="0px" y="0px"
	 viewBox="0 0 72 72" style="enable-background:new 0 0 72 72;" xml:space="preserve">
<style type="text/css">
	.st0{fill:#181818;}
	.st1{fill:#B0A8F1;}
	.st2{fill-rule:evenodd;clip-rule:evenodd;fill:#181818;}
</style>
<g>
	<path class="st0" d="M56,0H16C7.2,0,0,7.2,0,16v40c0,8.8,7.2,16,16,16h40c8.8,0,16-7.2,16-16V16C72,7.2,64.8,0,56,0z"/>
</g>
<path class="st1" d="M53.9,31.6c2.1,0,0.7,6.7,1.1,7.7c0.1,2.2-5.1,1-6.1,2c4.3,7.2,4.2,3.6-1.9,10.4c-1.5,1.9-4.8-3.7-5.9-2.4
	c-0.9,8.2-1.4,5.1-8.4,5.7c-2.4,0.2-0.8-6-2.5-5.9c-1,0.3-4.2,4.1-5.4,2.6c0,0-4.6-4.6-4.6-4.6c-1.5-1.2,2.2-4.3,2.6-5.3
	c0.1-1.7-6.2-0.2-5.9-2.6c0.4-9.1-2.2-6.7,5.9-8.6c0.1-1.3-4.2-4.3-2.6-5.8c0,0,4.6-4.6,4.6-4.6c1.2-1.5,4.3,2.2,5.3,2.6
	c1.7,0.1,0.3-6.2,2.6-5.9c0,0,6.5,0,6.5,0c1.9-0.2,1.5,4.6,1.9,5.6c0,0.3,0.4,0.4,0.6,0.3c1-0.3,4.2-4,5.4-2.5c0,0,4.6,4.7,4.6,4.7
	c1.5,1.2-2.2,4.3-2.6,5.3C48.4,31.3,53.7,31.3,53.9,31.6z M52.2,38.3c0.7,0.1,0.2-3.7,0.3-4c-1.3-1.3-5.1,0-5.8-2.7
	c-1.3-2.1,2.2-4.2,2.2-5.8c0,0-2.6-2.7-2.6-2.7c-1.7,0-3.6,3.5-5.9,2.2c-2.5-0.6-1.4-4.6-2.6-5.7c-4.1,0.2-4-1.2-4.5,3.5
	c-0.2,2.1-2.9,3.3-4.6,2c-0.3,0-2.8-2.5-3.1-1.9c-2.8,3-3.7,2.1-0.7,5.6c1.3,1.7,0.3,4.4-2,4.7c-0.2,0.2-3.6,0.2-3.4,0.8
	c0.2,4.1-1.2,4,3.5,4.5c4.2,1,2.1,5.1,0,7.2c-0.5,0.4,2.5,2.8,2.6,3.1c1.7,0,3.6-3.6,5.9-2.2c2.6,0.6,1.4,4.6,2.6,5.8
	c0.3-0.2,4.1,0.4,4-0.3c0.2-6.1,3.1-7.4,7.6-3.2c0.4,0.5,2.8-2.5,3.1-2.6c0.6-0.3-1.8-2.7-1.9-3C44.7,39.4,49.2,38.3,52.2,38.3z"/>
<path class="st0" d="M39.1,55.4c-6.8-0.5-8.1,2.4-8.7-5.9c-1.3,0.5-4.4,4.3-5.9,2.5c-4.4-5.1-7.4-4.1-2-10.4c-1.3-0.5-6.1-0.1-6-2.4
	c0.5-6.8-2.4-8.1,5.9-8.7c-0.5-1.3-4.2-4.4-2.5-5.9c5.1-4.4,4-7.4,10.4-2c0.5-1.3,0.1-6.1,2.4-6c6.8,0.5,8-2.4,8.8,5.9
	c1.3-0.5,4.4-4.2,5.9-2.5c4.3,5.2,7.5,4.1,2,10.5c8.4,0.8,5.5,2,6,8.9c0.2,2.4-4.8,1.7-6.1,2.2c0.6,1.3,4.3,4.4,2.6,5.9
	c-5,4.4-4.1,7.5-10.3,2C41,50.7,41.4,55.5,39.1,55.4z M30.4,48.7c1.8,0.2,0.3,5.8,2.2,5.9c10.4-0.2,5.6,1.6,8.5-5.9
	c7.2,3.3,2.6,5.4,10.1-1.8c1.2-1.4-3.2-4.3-2.7-5.7c0.7-1.3,5.9,0,6.1-1.9c-0.4-0.7,0.8-7.4-0.7-7.4c-6.4-1-6.3-0.5-2.3-5.6
	c0.3-0.3,0.2-0.8-0.1-1.1c-7.5-7.2-2.8-5.3-10.2-2c-2.9-7.5,1.9-5.6-8.5-5.9c-2.1,0-0.3,6.8-2.8,5.8c-0.7-0.2-4-3.8-4.8-2.7
	c0,0-4.6,4.6-4.6,4.6c-1.1,0.8,2.4,4.2,2.6,4.9c0.9,2.5-5.8,0.6-5.8,2.7c0,0,0,6.5,0,6.5c-0.2,1.4,4.7,1.2,5.3,1.6
	c2.5,1.1-3.7,4.5-2.2,6C26.9,52.5,23.5,53.1,30.4,48.7z M37.7,52.9c-0.7-0.3-4.4,0.6-4.4-0.7c-0.3-1.5-0.1-4.6-2-5.1
	c-1.8-1-3.7,1.3-5.1,2.2c-0.9,0.9-3-2.4-3.6-2.7c-0.8-1.8,3.5-3.8,2.2-5.9c-0.6-2.8-5-1-5.8-2.9c0.3-0.7-0.6-4.4,0.7-4.4
	c2.6-0.1,6.9-1.1,4.8-4.5c-0.2-0.6-2.8-2.8-1.8-3.5c0.7-0.3,2.7-3.5,3.6-2.7c1.3,0.8,3.3,3.1,5,2.2c2-0.6,1.8-3.6,2.1-5.2
	c0-1.2,3.8-0.4,4.4-0.7c1.9,0.7,0.3,5.2,2.8,5.8c2.3,1.4,4.2-2.9,6-2.1c0.3,0.7,3.6,2.7,2.7,3.7c-0.8,1.2-3.1,3.3-2.2,4.9
	c0.6,2,3.6,1.8,5.2,2.1c1.2,0,0.4,3.7,0.7,4.4c-0.2,2-8.2-0.5-5.7,5.2c3.1,3.7,2.2,3-0.8,6.1c-1.8,0.8-3.8-3.5-5.9-2.2
	C37.9,47.7,39.7,52.1,37.7,52.9z M30.3,46.2c3.2-0.1,3.5,3.6,3.7,6l3.7,0c0.2-6.3,3.5-7.8,8.2-3.4l2.6-2.6c-4.4-4.8-2.8-8.2,3.6-8.2
	c0,0,0-3.6,0-3.7c-6.3-0.2-7.8-3.6-3.4-8.3l-2.6-2.7c-4.7,4.4-7.9,2.9-8.3-3.5l-3.7,0c-0.2,6.4-3.6,7.8-8.3,3.4l-2.6,2.6
	c4.3,4.6,2.9,8-3.4,8.3l0,3.7c6.3,0.2,7.8,3.6,3.4,8.2l2.6,2.6C27,48,28.9,46,30.3,46.2z"/>
<path class="st1" d="M28.4,36c-0.1-9.9,15.4-9.9,15.2,0C43.8,45.9,28.2,45.9,28.4,36z M30.8,36c-0.1,6.7,10.4,6.7,10.3,0
	C41.3,29.3,30.7,29.3,30.8,36z"/>
<path class="st2" d="M36,28.8c-9.4-0.1-9.4,14.6,0,14.5C45.4,43.4,45.4,28.6,36,28.8z M28,36c-0.1-10.4,16.1-10.4,16,0
	C44.1,46.4,27.9,46.4,28,36z M30.5,36c-0.1-7.2,11.2-7.2,11.1,0C41.7,43.2,30.3,43.2,30.5,36z M36,31.2c-6.2-0.1-6.2,9.7,0,9.6
	C42.2,40.9,42.2,31.1,36,31.2z"/>
</svg>
