<svg width="64" height="64" viewBox="0 0 64 64" fill="none" xmlns="http://www.w3.org/2000/svg">
<mask id="mask0" mask-type="alpha" maskUnits="userSpaceOnUse" x="0" y="0" width="64" height="64">
<rect width="64" height="64" rx="16" fill="#FD5E40"/>
</mask>
<g mask="url(#mask0)">
<rect width="64" height="64" rx="16" fill="#0031B0"/>
</g>
<path d="M19.5665 30.692L25.0966 32.865L27.2371 40.1125C27.374 40.5766 27.9131 40.7482 28.271 40.4402L31.3535 37.7945C31.6766 37.5173 32.1369 37.5035 32.4746 37.7616L38.0344 42.0114C38.4172 42.3043 38.9596 42.0835 39.0556 41.5965L43.1284 20.9701C43.2332 20.4382 42.7368 19.9944 42.2556 20.1903L19.56 29.4081C18.9999 29.6355 19.0048 30.4704 19.5665 30.692ZM26.8921 31.7082L37.7 24.7C37.8942 24.5744 38.094 24.8509 37.9272 25.0138L29.0076 33.7431C28.6941 34.0503 28.4919 34.4615 28.4346 34.9078L28.1307 37.2785C28.0905 37.595 27.6682 37.6264 27.5852 37.3201L26.4166 32.9972C26.2828 32.5041 26.4779 31.9774 26.8921 31.7082Z" fill="white"/>
</svg>
